# xmcd
#
# Track frame offsets:
#   150
#   5832
#   14842
#   20902
#   23033
#   25224
#   28518
#   33597
#   42072
#   44959
#   46599
#   48754
#   52219
#   61323
#   69953
#   74035
#   80297
#   84905
#   87809
#   94249
#   98813
#   101072
#   102688
#   105325
#   110347
#   117288
#   121590
#   126837
#   133317
#   136963
#   140460
#   146004
#   148113
#   151880
#   156486
#   163450
#   168355
#   170621
#   173158
#   181894
#   190602
#   198173
#   206189
#   212654
#   214669
#   216751
#   230404
#   237115
#   239896
#   243361
#   245539
#   247592
#   253004
#   258472
#   264588
#   266010
#   269574
#   274371
#   281208
#   283447
#   287010
#   290532
#   302032
#   306370
#   314022
#   318104
#   323454
#
# Disc length: 4344 seconds
#
# Revision: 0
# Processed by: cddbd v1.5.2PL0 Copyright (c) Steve Scherf et al.
# Submitted via: uFREEDB ActiveX Control 1.5
#
DISCID=0110f643
DTITLE=Italiano - Italiano
DYEAR=1900
DGENRE=Books and Spoken
TTITLE0=Faixa1
TTITLE1=Faixa2
TTITLE2=Faixa3
TTITLE3=Faixa4
TTITLE4=Faixa5
TTITLE5=Faixa6
TTITLE6=Faixa7
TTITLE7=Faixa8
TTITLE8=Faixa9
TTITLE9=Faixa10
TTITLE10=Faixa11
TTITLE11=Faixa12
TTITLE12=Faixa13
TTITLE13=Faixa14
TTITLE14=Faixa15
TTITLE15=Faixa16
TTITLE16=Faixa17
TTITLE17=Faixa18
TTITLE18=Faixa19
TTITLE19=Faixa20
TTITLE20=Faixa21
TTITLE21=Faixa22
TTITLE22=Faixa23
TTITLE23=Faixa24
TTITLE24=Faixa25
TTITLE25=Faixa26
TTITLE26=Faixa27
TTITLE27=Faixa28
TTITLE28=Faixa29
TTITLE29=Faixa30
TTITLE30=Faixa31
TTITLE31=Faixa32
TTITLE32=Faixa33
TTITLE33=Faixa34
TTITLE34=Faixa35
TTITLE35=Faixa36
TTITLE36=Faixa37
TTITLE37=Faixa38
TTITLE38=Faixa39
TTITLE39=Faixa40
TTITLE40=Faixa41
TTITLE41=Faixa42
TTITLE42=Faixa43
TTITLE43=Faixa44
TTITLE44=Faixa45
TTITLE45=Faixa46
TTITLE46=Faixa47
TTITLE47=Faixa48
TTITLE48=Faixa49
TTITLE49=Faixa50
TTITLE50=Faixa51
TTITLE51=Faixa52
TTITLE52=Faixa53
TTITLE53=Faixa54
TTITLE54=Faixa55
TTITLE55=Faixa56
TTITLE56=Faixa57
TTITLE57=Faixa58
TTITLE58=Faixa59
TTITLE59=Faixa60
TTITLE60=Faixa61
TTITLE61=Faixa62
TTITLE62=Faixa63
TTITLE63=Faixa64
TTITLE64=Faixa65
TTITLE65=Faixa66
TTITLE66=Faixa67
EXTD=
EXTT0=
EXTT1=
EXTT2=
EXTT3=
EXTT4=
EXTT5=
EXTT6=
EXTT7=
EXTT8=
EXTT9=
EXTT10=
EXTT11=
EXTT12=
EXTT13=
EXTT14=
EXTT15=
EXTT16=
EXTT17=
EXTT18=
EXTT19=
EXTT20=
EXTT21=
EXTT22=
EXTT23=
EXTT24=
EXTT25=
EXTT26=
EXTT27=
EXTT28=
EXTT29=
EXTT30=
EXTT31=
EXTT32=
EXTT33=
EXTT34=
EXTT35=
EXTT36=
EXTT37=
EXTT38=
EXTT39=
EXTT40=
EXTT41=
EXTT42=
EXTT43=
EXTT44=
EXTT45=
EXTT46=
EXTT47=
EXTT48=
EXTT49=
EXTT50=
EXTT51=
EXTT52=
EXTT53=
EXTT54=
EXTT55=
EXTT56=
EXTT57=
EXTT58=
EXTT59=
EXTT60=
EXTT61=
EXTT62=
EXTT63=
EXTT64=
EXTT65=
EXTT66=
PLAYORDER=
